<svg width="48" height="48" viewBox="0 0 48 48" fill="none" xmlns="http://www.w3.org/2000/svg">
<g clip-path="url(#clip0_1541_18107)">
<path d="M41 45C41.5523 45 42 44.5523 42 44C42 43.4477 41.5523 43 41 43C40.4477 43 40 43.4477 40 44C40 44.5523 40.4477 45 41 45Z" fill="#A2A2FF"/>
<path d="M41.5735 6.86179C42.0434 6.86179 42.4243 6.48087 42.4243 6.01097C42.4243 5.54108 42.0434 5.16016 41.5735 5.16016C41.1036 5.16016 40.7227 5.54108 40.7227 6.01097C40.7227 6.48087 41.1036 6.86179 41.5735 6.86179Z" fill="#A2A2FF"/>
<path d="M2.02074 37.5649C2.49063 37.5649 2.87156 37.184 2.87156 36.7141C2.87156 36.2442 2.49063 35.8633 2.02074 35.8633C1.55085 35.8633 1.16992 36.2442 1.16992 36.7141C1.16992 37.184 1.55085 37.5649 2.02074 37.5649Z" fill="#A2A2FF"/>
<path d="M2.65355 8.31492C3.12345 8.31492 3.50437 7.93399 3.50437 7.4641C3.50437 6.99421 3.12345 6.61328 2.65355 6.61328C2.18366 6.61328 1.80273 6.99421 1.80273 7.4641C1.80273 7.93399 2.18366 8.31492 2.65355 8.31492Z" fill="#A2A2FF"/>
<path d="M45.2568 5.6894C46.2195 5.6894 46.9999 4.90897 46.9999 3.94626C46.9999 2.98355 46.2195 2.20312 45.2568 2.20312C44.2941 2.20312 43.5137 2.98355 43.5137 3.94626C43.5137 4.90897 44.2941 5.6894 45.2568 5.6894Z" fill="#5D5FEF"/>
<path d="M10.5614 5H37.4386C38.118 5 38.7694 5.28282 39.2498 5.78624C39.7301 6.28966 40 6.97244 40 7.68438V27H8V7.68438C8 6.97244 8.26986 6.28966 8.75021 5.78624C9.23056 5.28282 9.88205 5 10.5614 5Z" fill="#ADB0EA" stroke="white"/>
<path d="M7.5088 10H40.4912C41.1566 10 41.7947 10.2756 42.2652 10.7663C42.7357 11.2569 43 11.9224 43 12.6163V36H5V12.6163C5 11.9224 5.26432 11.2569 5.73481 10.7663C6.2053 10.2756 6.84343 10 7.5088 10Z" fill="#ADB0EA" stroke="white"/>
<path d="M17.9281 28L15 23.5L17.9281 19H21L18.0588 23.5L21 28H17.9281Z" fill="white"/>
<path d="M27 14L23.8882 32H22L25.1118 14H27Z" fill="white"/>
<path d="M28 19H31.0846L34 23.5L31.0846 28H28L30.9284 23.5L28 19Z" fill="white"/>
<path d="M46.8375 44.9938H1.01211C0.830936 44.9777 0.656553 44.9189 0.504261 44.8223C0.35197 44.7258 0.226388 44.5946 0.138502 44.4401C0.0506169 44.2857 0.00312894 44.1127 0.00014942 43.9363C-0.0028301 43.7599 0.0387907 43.5855 0.121412 43.4283L4.5748 36.5728C4.69294 36.3917 4.85782 36.2437 5.05309 36.1433C5.24836 36.0429 5.46726 35.9938 5.68815 36.0006H42.2616C42.4825 35.9938 42.7014 36.0429 42.8967 36.1433C43.092 36.2437 43.2568 36.3917 43.375 36.5728L47.8284 43.4283C47.9374 43.5894 47.9969 43.7772 47.9999 43.9698C48.0029 44.1624 47.9493 44.3519 47.8454 44.516C47.7415 44.6802 47.5915 44.8123 47.413 44.8969C47.2345 44.9815 47.0349 45.0151 46.8375 44.9938Z" fill="#5D5FEF" stroke="white"/>
<path d="M9 40H26" stroke="white"/>
<path d="M31 42H40" stroke="white"/>
</g>
<defs>
<clipPath id="clip0_1541_18107">
<rect width="48" height="48" fill="white"/>
</clipPath>
</defs>
</svg>
